<svg width="80" height="46" viewBox="0 0 80 46" fill="none" xmlns="http://www.w3.org/2000/svg">
<path d="M25.155 45.25C23.805 45.25 22.47 44.86 21.15 44.08C19.86 43.33 18.21 42.16 16.2 40.57C14.7 39.37 13.41 38.395 12.33 37.645C11.28 36.925 10.125 36.31 8.86502 35.8C7.63502 35.29 6.37502 35.035 5.08502 35.035C4.63502 35.035 4.29002 35.05 4.05002 35.08L10.755 3.895C8.74502 4.705 7.18502 5.95 6.07502 7.63C4.99502 9.28 4.45502 11.305 4.45502 13.705C4.45502 14.815 4.56002 15.595 4.77002 16.045C4.98002 16.465 5.08502 16.705 5.08502 16.765C3.46502 16.765 2.25002 16.435 1.44002 15.775C0.66002 15.085 0.27002 13.96 0.27002 12.4C0.27002 10.48 1.05002 8.62 2.61002 6.82C4.20002 4.99 6.22502 3.52 8.68502 2.41C11.145 1.27 13.605 0.700003 16.065 0.700003C16.485 0.700003 17.085 0.730002 17.865 0.790001L10.935 33.1C11.775 33.31 12.63 33.61 13.5 34C14.4 34.42 15.48 34.975 16.74 35.665C18.69 36.715 20.355 37.51 21.735 38.05C23.115 38.62 24.555 38.905 26.055 38.905C27.405 38.905 28.665 38.665 29.835 38.185C29.595 40.375 29.055 42.1 28.215 43.36C27.405 44.62 26.385 45.25 25.155 45.25ZM34.4658 34.765C33.2658 34.765 32.2158 34.51 31.3158 34C30.4458 33.52 30.0108 32.665 30.0108 31.435C30.0108 30.655 30.2058 29.785 30.5958 28.825C31.1358 29.425 31.6308 29.845 32.0808 30.085C32.5608 30.325 33.0708 30.445 33.6108 30.445C35.1108 30.445 36.2208 29.605 36.9408 27.925C37.6908 26.245 38.0658 24.385 38.0658 22.345C38.0658 18.535 36.6408 16.63 33.7908 16.63C32.9808 16.63 32.2908 16.675 31.7208 16.765L28.0308 34H21.5508L27.6708 5.38L34.3308 4.48L32.2158 14.47H32.4858C33.6258 14.47 34.6908 14.11 35.6808 13.39C36.6708 12.64 37.4658 11.71 38.0658 10.6C38.6658 9.46 38.9658 8.32 38.9658 7.18C38.9658 5.8 38.4708 4.645 37.4808 3.715C36.5208 2.785 35.0358 2.32 33.0258 2.32C31.1958 2.32 29.4108 2.74 27.6708 3.58C25.9308 4.39 24.5058 5.62 23.3958 7.27C22.3158 8.92 21.7758 10.915 21.7758 13.255C21.7758 14.365 21.8808 15.145 22.0908 15.595C22.3008 16.015 22.4058 16.255 22.4058 16.315C20.8158 16.315 19.6158 16 18.8058 15.37C17.9958 14.71 17.5908 13.645 17.5908 12.175C17.5908 10.135 18.3558 8.2 19.8858 6.37C21.4158 4.54 23.4408 3.07 25.9608 1.96C28.4808 0.820001 31.1358 0.25 33.9258 0.25C36.0258 0.25 37.7958 0.580001 39.2358 1.24C40.6758 1.9 41.7408 2.77 42.4308 3.85C43.1508 4.93 43.5108 6.115 43.5108 7.405C43.5108 8.785 43.1208 10.12 42.3408 11.41C41.5608 12.7 40.4508 13.75 39.0108 14.56C40.8108 14.89 42.1458 15.73 43.0158 17.08C43.8858 18.4 44.3208 19.975 44.3208 21.805C44.3208 23.515 43.9908 25.375 43.3308 27.385C42.7008 29.395 41.6358 31.135 40.1358 32.605C38.6658 34.045 36.7758 34.765 34.4658 34.765ZM57.3239 2.085C55.0439 2.835 53.2739 4.08 52.0139 5.82C50.7839 7.53 50.1689 9.66 50.1689 12.21C50.1689 13.35 50.2739 14.13 50.4839 14.55C50.6939 14.97 50.7989 15.225 50.7989 15.315C47.5889 15.315 45.9839 13.95 45.9839 11.22C45.9839 9.36 46.6889 7.5 48.0989 5.64C49.5389 3.75 51.3689 2.22 53.5889 1.05C55.8389 -0.149999 58.0739 -0.75 60.2939 -0.75C61.4039 -0.75 62.5439 -0.54 63.7139 -0.12L62.6789 23.595L72.5789 -0.12H79.0589L74.3339 33H67.8539L70.7339 12.795L62.2739 33H56.1089L57.0089 12.705L49.4939 33H45.8939L57.3239 2.085Z" fill="black"/>
</svg>
