<svg width="2077" height="376" viewBox="0 0 2077 376" fill="none" xmlns="http://www.w3.org/2000/svg">
<path d="M54.5169 287.246C54.5169 301.212 56.5385 312.053 60.5821 319.771C64.9932 327.121 84.5071 324.796 91.1237 324.796C94.7994 324.796 98.2917 324.613 101.6 324.245C104.908 323.51 108.217 323.143 111.525 323.143C115.201 323.143 118.325 324.98 120.898 328.655C123.839 332.33 125.31 336.373 125.31 340.783C125.31 349.604 121.082 356.586 112.628 361.732C104.541 366.509 79.5132 374.898 65.5446 374.898C55.6197 374.898 45.5108 371.958 35.2185 366.078C25.2935 359.83 17.0228 350.275 10.4062 337.412C3.78954 324.181 0.481232 307.827 0.481232 288.348C0.481232 246.452 1.21641 210.986 2.68677 181.953C4.52473 147.407 5.44369 103.856 5.44369 51.3012C5.44369 34.763 6.36265 23.1863 8.20062 16.571C10.4062 11.4258 13.8983 7.56689 18.6769 4.99425C23.8232 2.05416 29.1532 0.584106 34.6671 0.584106C40.1809 0.584106 44.9594 1.5029 49.0031 3.34048C53.4142 5.17803 56.355 8.11816 57.8252 12.1608C59.2954 16.571 60.2147 20.9812 60.5821 25.3913C61.3175 29.434 61.6849 35.3143 61.6849 43.0321C61.6849 58.1004 61.1335 72.6169 60.0308 86.5827C59.2954 103.488 58.928 115.8 58.928 123.518C55.9871 188.201 54.5169 242.777 54.5169 287.246ZM74.5046 255.823C74.5046 241.858 77.0776 227.892 82.224 213.927C87.3704 199.594 94.1705 186.547 102.625 174.786C111.08 163.026 124.497 153.471 142.876 146.12C161.256 138.402 177.614 134.543 191.95 134.543C206.653 134.543 221.54 136.565 236.612 140.607C252.05 144.65 262.711 150.898 268.592 159.351C282.193 178.461 288.993 197.205 288.993 215.58C288.993 225.503 286.788 233.956 282.377 240.939C278.333 247.922 272.452 255.456 264.732 263.541C258.483 270.156 248.558 274.567 234.958 276.772C221.724 278.977 208.491 280.079 195.258 280.079C186.803 280.079 176.511 279.344 164.38 277.874C152.25 276.037 140.487 273.831 129.092 271.259C129.827 278.609 131.665 285.776 134.606 292.759C137.546 299.741 141.038 305.071 145.082 308.746C152.434 315.728 159.969 320.138 167.689 321.976C175.775 323.814 186.068 324.732 198.566 324.732C211.799 324.732 224.114 322.527 235.509 318.117C244.699 314.81 252.234 313.156 258.116 313.156C265.1 313.156 270.43 315.361 274.106 319.771C277.782 323.814 279.62 329.143 279.62 335.758C279.62 344.946 274.29 352.48 263.63 358.36C252.969 364.24 240.655 368.65 226.687 371.591C213.086 374.163 202.058 375.45 193.604 375.45C176.327 375.45 159.602 372.326 143.428 366.078C127.254 359.83 113.837 351.01 103.177 339.617C94.3545 329.327 87.3704 317.015 82.224 302.682C77.0776 287.981 74.5046 272.362 74.5046 255.823ZM194.706 181.402C186.62 181.402 178.532 183.055 170.446 186.363C162.359 189.303 155.742 193.53 150.596 199.042C143.979 206.025 139.384 211.722 136.811 216.132C134.606 220.175 133.135 225.871 132.4 233.221C141.59 236.161 160.705 237.631 189.744 237.631C205.55 237.631 217.681 235.242 226.135 230.465C234.958 225.687 239.369 219.439 239.369 211.722C239.369 204.004 234.59 197.021 225.033 190.773C215.475 184.525 205.367 181.402 194.706 181.402ZM414.918 273.464C414.918 252.883 415.102 237.264 415.47 226.606L416.021 174.235C416.021 152.919 415.47 129.582 414.367 104.223C413.999 96.5056 412.713 85.8475 410.507 72.2496C407.566 51.6686 406.096 36.2331 406.096 25.9427C406.096 9.03698 414.551 0.584106 431.46 0.584106C442.121 0.584106 449.655 3.52421 454.066 9.40444C458.844 14.9172 462.152 23.7376 463.991 35.8656C467.666 61.2241 469.505 90.9928 469.505 125.172C469.505 135.462 469.139 150.898 468.402 171.479C475.385 160.453 484.393 151.817 495.42 145.569C506.814 139.321 518.027 136.197 529.055 136.197C561.035 136.197 588.604 149.428 611.762 175.889C618.013 185.077 623.527 196.102 628.304 208.965C633.452 221.461 636.023 232.303 636.023 241.49C636.023 257.661 634.184 272.545 630.509 286.143C627.201 299.741 621.136 312.972 612.314 325.835C603.492 338.698 592.279 349.172 578.679 357.258C565.446 365.343 550.007 369.386 532.363 369.386C516.924 369.386 502.954 366.262 490.458 360.014C478.327 353.766 468.588 345.497 461.234 335.207C459.395 344.394 455.354 353.583 449.104 362.77C442.854 371.591 435.686 376.001 427.6 376.001C420.983 376.001 415.47 374.347 411.058 371.039C406.647 367.364 404.442 362.035 404.442 355.052C404.442 349.907 405.545 343.476 407.75 335.758C409.956 325.1 411.61 315.361 412.713 306.54C414.183 297.353 414.918 286.327 414.918 273.464ZM518.578 323.63C536.589 323.63 551.662 317.382 563.792 304.887C575.922 292.023 581.988 274.751 581.988 253.067C581.988 233.221 576.659 216.132 565.997 201.799C562.323 197.021 556.99 193.162 550.007 190.222C543.391 187.282 536.774 185.812 530.158 185.812C514.719 185.812 501.671 190.406 491.009 199.594C480.348 208.414 474.282 220.726 472.814 236.529C471.345 257.845 470.608 276.22 470.608 291.656C475.019 300.109 481.636 307.643 490.458 314.258C499.646 320.506 509.02 323.63 518.578 323.63ZM895.392 195.735C898.334 200.88 900.721 208.414 902.56 218.337C904.399 227.892 905.317 236.529 905.317 244.247C905.317 254.17 904.214 265.195 902.009 277.323C899.803 289.451 897.783 298.823 895.943 305.438C870.58 351.745 833.085 374.898 783.461 374.898C765.08 374.898 746.333 368.834 727.22 356.706C708.106 344.578 694.873 330.613 687.52 314.81C677.595 283.571 672.633 263.541 672.633 254.721C672.633 240.02 675.756 224.401 682.006 207.863C688.623 191.324 696.893 176.991 706.818 164.863C713.435 156.41 724.829 149.244 741.004 143.364C757.18 137.116 771.882 133.992 785.115 133.992C810.845 133.992 832.534 138.954 850.178 148.876C868.189 158.432 883.261 174.051 895.392 195.735ZM847.421 284.49C849.261 280.815 850.178 268.503 850.178 247.554C850.178 236.896 848.158 226.422 844.113 216.132C840.439 205.841 834.925 197.021 827.572 189.671C826.835 188.935 824.815 187.833 821.506 186.363C818.198 184.525 813.602 182.871 807.722 181.402C802.208 179.564 795.777 178.645 788.423 178.645C767.837 178.645 752.769 186.914 743.21 203.452C733.651 219.991 728.874 238.734 728.874 259.682C728.874 262.99 729.977 269.789 732.182 280.079C734.388 290.37 736.042 296.985 737.145 299.925C740.087 305.071 745.967 311.135 754.789 318.117C763.977 324.732 773.902 328.04 784.564 328.04C801.105 328.04 814.153 324.181 823.712 316.463C833.637 308.378 841.541 297.72 847.421 284.49ZM1169.58 330.245C1171.42 330.98 1174.36 331.899 1178.4 333.002C1182.44 334.104 1185.38 335.207 1187.22 336.309C1189.06 337.412 1189.98 339.066 1189.98 341.271C1190.35 350.091 1187.04 357.441 1180.05 363.322C1173.44 368.834 1165.53 371.591 1156.34 371.591C1142.01 371.591 1130.8 367.732 1122.71 360.014C1114.62 352.296 1108.74 340.535 1105.07 324.732C1103.6 318.485 1102.86 309.848 1102.86 298.823C1102.86 292.575 1103.23 282.468 1103.96 268.503C1104.7 253.802 1105.07 242.042 1105.07 233.221C1105.07 217.418 1103.41 205.474 1100.1 197.388C1096.79 188.935 1088.89 184.709 1076.39 184.709C1063.53 184.709 1051.95 189.855 1041.66 200.145C1031.73 210.435 1023.28 225.871 1016.29 246.452C1006.73 275.118 1001.41 313.156 1000.3 360.565C1000.3 363.138 997.546 366.262 992.032 369.937C986.884 373.244 980.638 374.898 973.285 374.898C959.685 374.898 951.229 367.732 947.921 353.399L947.37 344.027C947.37 340.719 947.736 336.86 948.473 332.45C952.884 306.724 955.089 284.306 955.089 265.195C955.089 256.742 954.904 250.127 954.538 245.349L953.986 219.439C953.986 210.619 951.781 202.166 947.37 194.081C942.959 185.628 936.243 187.904 931.931 181.402C921.779 166.092 922.119 138.33 940.202 135.095C945.749 134.102 950.863 135.646 954.538 136.748C958.212 137.851 963.175 140.24 969.425 143.915C973.1 145.753 977.33 150.898 982.107 159.351C986.884 167.804 990.563 179.748 993.135 195.183C1000.49 181.585 1012.8 167.252 1030.08 152.184C1042.94 140.423 1061.51 134.543 1085.77 134.543C1107.82 134.543 1125.28 142.629 1138.15 158.799C1151.02 174.602 1157.45 196.47 1157.45 224.401C1157.45 229.914 1157.08 238.918 1156.34 251.413C1155.24 261.336 1154.69 271.81 1154.69 282.836C1154.69 308.562 1159.65 324.365 1169.58 330.245ZM1538.92 353.399C1533.4 343.108 1529.91 331.715 1528.44 319.22C1526.97 306.357 1526.23 288.716 1526.23 266.298C1526.23 244.982 1523.29 226.422 1517.41 210.619C1511.53 194.816 1499.4 186.914 1481.02 186.914C1474.04 186.914 1467.05 189.119 1460.07 193.53C1453.45 197.572 1448.49 202.717 1445.18 208.965C1440.03 218.888 1436.54 229.73 1434.7 241.49C1432.87 252.883 1431.95 266.114 1431.95 281.182C1431.95 290.737 1432.5 300.476 1433.6 310.399C1433.6 313.34 1433.79 318.117 1434.15 324.732C1434.89 330.98 1435.26 336.677 1435.26 341.822C1435.26 363.873 1427.54 374.898 1412.1 374.898C1391.88 374.898 1381.22 364.24 1380.12 342.924C1380.12 327.856 1380.3 319.771 1380.67 318.668V294.964C1380.67 281.733 1380.12 268.87 1379.01 256.375C1377.91 243.879 1376.62 234.508 1375.16 228.26C1371.85 216.132 1367.44 206.76 1361.92 200.145C1356.77 193.53 1348.5 190.222 1337.11 190.222C1320.93 190.222 1307.89 197.205 1297.96 211.17C1290.98 222.196 1286.38 235.61 1284.18 251.413C1281.97 271.626 1280.32 287.613 1279.21 299.374C1278.48 310.767 1278.11 323.997 1278.11 339.066C1278.11 349.724 1276.27 358.36 1272.6 364.975C1269.29 371.591 1262.86 374.898 1253.3 374.898C1246.32 374.898 1238.96 373.061 1231.24 369.386C1223.89 365.343 1220.22 360.014 1220.22 353.399C1220.22 346.416 1220.95 339.433 1222.42 332.45C1225.73 311.502 1227.38 274.015 1227.38 219.991C1227.38 211.17 1225.18 202.717 1220.77 194.632C1216.72 186.179 1210.09 188.323 1205.88 181.953C1195.81 166.714 1195.64 142.695 1212.5 135.646C1225.82 130.073 1237.68 139.872 1247.23 148.325C1256.79 156.778 1264.14 168.538 1269.29 183.607C1277.75 168.906 1289.14 157.146 1303.48 148.325C1317.81 139.137 1333.8 134.543 1351.45 134.543C1362.47 134.543 1371.3 136.013 1377.91 138.954C1384.89 141.526 1390.59 145.385 1395 150.53C1399.42 155.308 1405.12 162.658 1412.1 172.581C1421.29 160.821 1433.05 151.633 1447.39 145.018C1462.09 138.402 1477.16 135.095 1492.6 135.095C1510.98 135.095 1527.52 142.629 1542.22 157.697C1556.93 172.397 1566.85 189.487 1572 208.965C1574.57 218.888 1575.86 237.999 1575.86 266.298L1578.06 298.271C1579.9 317.382 1586.15 328.959 1596.81 333.002C1609.31 336.677 1615.56 340.535 1615.56 344.578C1615.56 353.399 1613.35 359.83 1608.94 363.873C1605.63 366.078 1601.04 368.467 1595.16 371.039C1589.28 373.612 1584.68 374.898 1581.37 374.898C1561.52 374.898 1547.37 367.732 1538.92 353.399ZM1608.54 186.914C1605.6 186.914 1603.03 185.812 1600.82 183.607C1598.62 181.034 1597.52 178.094 1597.52 174.786C1597.52 164.128 1601.01 156.043 1607.99 150.53C1614.97 144.65 1623.62 141.71 1633.91 141.71C1648.24 141.71 1660.56 145.569 1670.85 153.287C1681.51 160.637 1686.84 171.295 1686.84 185.26C1686.84 188.935 1686.1 202.901 1684.63 227.157C1683.16 255.088 1682.43 273.648 1682.43 282.836C1682.43 295.699 1684.82 306.173 1689.6 314.258C1694.74 321.976 1702.64 325.835 1713.31 325.835C1733.89 325.835 1749.7 314.442 1760.72 291.656C1772.12 268.503 1779.66 240.204 1783.33 206.76C1784.8 192.06 1787.01 176.624 1789.95 160.453C1791.42 151.633 1793.44 145.201 1796.01 141.159C1798.59 137.116 1803.55 135.095 1810.9 135.095C1815.68 135.095 1821.19 136.197 1827.44 138.402C1834.06 140.607 1838.28 143.548 1840.12 147.223C1842.33 152.735 1843.43 158.799 1843.43 165.415C1843.43 174.602 1842.14 186.547 1839.57 201.247C1836.63 215.948 1834.61 231.935 1833.51 249.208C1832.77 264.644 1835.16 280.815 1840.68 297.72C1846.19 314.626 1854.09 325.651 1864.39 330.796C1876.15 336.677 1882.03 342.006 1882.03 346.783C1882.03 354.501 1879.27 360.565 1873.76 364.975C1868.24 369.386 1862.92 371.591 1857.77 371.591C1844.17 371.591 1831.85 366.629 1820.83 356.706C1810.16 346.783 1802.44 334.471 1797.67 319.771C1789.95 331.532 1782.41 341.271 1775.06 348.988C1768.08 356.339 1759.07 362.586 1748.04 367.732C1737.02 372.509 1723.42 374.898 1707.24 374.898C1688.13 374.898 1670.66 368.099 1654.86 354.501C1639.42 340.903 1631.7 317.566 1631.7 284.49C1631.7 275.302 1631.89 265.562 1632.25 255.272C1632.99 244.982 1633.36 237.631 1633.36 233.221C1634.46 219.991 1635.01 207.863 1635.01 196.837C1635.01 193.53 1633.72 190.773 1631.15 188.568C1628.94 186.363 1626.37 185.26 1623.43 185.26C1621.22 185.26 1618.65 185.628 1615.71 186.363C1613.14 186.73 1610.75 186.914 1608.54 186.914ZM1903.2 179.196C1893.64 172.581 1888.86 165.599 1888.86 158.248C1888.86 153.103 1891.07 148.325 1895.48 143.915C1899.89 139.505 1906.51 137.3 1915.33 137.3C1925.62 137.3 1934.81 140.056 1942.9 145.569C1951.35 150.714 1957.23 158.248 1960.54 168.171C1969 158.248 1978.55 150.346 1989.21 144.466C2000.24 138.586 2011.45 135.646 2022.85 135.646C2036.45 135.646 2048.76 139.321 2059.79 146.671C2070.82 154.022 2076.33 163.945 2076.33 176.44C2076.33 183.423 2073.21 190.589 2066.96 197.94C2061.08 205.29 2055.01 208.965 2048.76 208.965C2045.46 208.965 2042.51 208.23 2039.94 206.76C2037.74 204.922 2034.98 202.35 2031.67 199.042C2028 195.367 2024.87 192.794 2022.3 191.324C2019.73 189.487 2016.78 188.568 2013.47 188.568C2007.59 188.568 2002.08 189.487 1996.93 191.324C1991.79 193.162 1988.3 195.367 1986.46 197.94C1980.58 207.127 1976.17 215.397 1973.22 222.747C1970.65 230.097 1969.36 237.999 1969.36 246.452C1969.36 252.7 1969.18 257.661 1968.81 261.336L1968.26 292.759C1968.26 297.536 1968.45 302.865 1968.81 308.746C1969.18 314.626 1969.55 319.036 1969.92 321.976C1971.02 331.899 1971.57 341.455 1971.57 350.642C1971.57 356.89 1969.18 362.403 1964.4 367.18C1959.62 371.958 1953.74 374.347 1946.76 374.347C1935.73 374.347 1927.64 372.326 1922.5 368.283C1917.35 363.873 1914.78 355.971 1914.78 344.578L1914.23 309.297C1913.86 302.314 1913.67 292.391 1913.67 279.528L1914.23 243.144C1914.96 225.503 1915.33 211.17 1915.33 200.145C1915.33 196.102 1914.41 192.427 1912.57 189.119C1911.1 185.812 1907.98 182.504 1903.2 179.196Z" fill="#27E8ED"/>
</svg>
